<svg width="529" height="546" viewBox="0 0 529 546" fill="none" xmlns="http://www.w3.org/2000/svg">
<g clip-path="url(#clip0_1685_3372)">
<path d="M371.362 546H226.579C224.896 545.998 223.282 545.328 222.092 544.137C220.902 542.946 220.232 541.332 220.23 539.647V438.347C220.232 436.662 220.902 435.048 222.092 433.857C223.282 432.666 224.895 431.996 226.579 431.994H371.362C373.045 431.996 374.658 432.666 375.848 433.857C377.039 435.048 377.708 436.662 377.71 438.347V539.647C377.708 541.332 377.038 542.946 375.848 544.137C374.658 545.328 373.045 545.998 371.362 546Z" fill="#F2F2F2"/>
<path d="M134.756 281.933C135.727 280.69 136.413 279.249 136.767 277.712C137.121 276.174 137.134 274.578 136.805 273.035C136.476 271.492 135.812 270.04 134.862 268.781C133.911 267.523 132.696 266.488 131.303 265.75L130.39 168.839L112.291 177.152L116.272 270.878C115.188 273.303 115.031 276.041 115.83 278.574C116.629 281.107 118.329 283.259 120.607 284.622C122.886 285.985 125.584 286.464 128.192 285.968C130.8 285.472 133.135 284.037 134.756 281.933Z" fill="#9E616A"/>
<path d="M134.27 144.304C134.27 144.304 116.663 135.757 114.228 151.882C111.793 168.008 101.777 209.976 101.777 209.976L132.169 207.825L134.27 144.304Z" fill="#9E616A"/>
<path d="M134.756 281.933C135.727 280.69 136.413 279.249 136.767 277.712C137.121 276.174 137.134 274.578 136.805 273.035C136.476 271.492 135.812 270.04 134.862 268.781C133.911 267.523 132.696 266.488 131.303 265.75L130.39 168.839L112.291 177.152L116.272 270.878C115.188 273.303 115.031 276.041 115.83 278.574C116.629 281.107 118.329 283.259 120.607 284.622C122.886 285.985 125.584 286.464 128.192 285.968C130.8 285.472 133.135 284.037 134.756 281.933Z" fill="#9E616A"/>
<path d="M134.27 144.304C134.27 144.304 116.663 135.757 114.228 151.882C111.793 168.008 101.777 209.976 101.777 209.976L132.169 207.825L134.27 144.304Z" fill="#1E1E1E"/>
<path d="M83.289 517.616C82.5781 517.649 81.8743 517.462 81.273 517.081C80.6717 516.7 80.202 516.144 79.9275 515.487C79.6529 514.83 79.5869 514.104 79.7382 513.408C79.8895 512.712 80.251 512.08 80.7736 511.596C80.8611 511.248 80.9239 510.998 81.0114 510.65C80.9801 510.574 80.9485 510.498 80.9169 510.423C80.2007 508.73 79.0006 507.287 77.4674 506.274C75.9342 505.262 74.1361 504.725 72.2992 504.732C70.4622 504.739 68.6682 505.289 67.1426 506.312C65.6169 507.336 64.4276 508.789 63.724 510.487C60.912 517.264 57.3319 524.054 56.4503 531.22C56.0621 534.387 56.2259 537.598 56.9344 540.71C50.3298 526.292 46.9002 510.622 46.8782 494.761C46.8768 490.781 47.0977 486.804 47.54 482.849C47.9055 479.606 48.4126 476.387 49.0613 473.19C52.6012 455.847 60.2016 439.592 71.2382 425.759C76.5799 422.842 80.8998 418.357 83.6158 412.907C84.5997 410.949 85.2951 408.857 85.6804 406.699C85.0778 406.778 84.4654 406.828 83.8628 406.867C83.6751 406.877 83.4775 406.887 83.2898 406.897L83.219 406.9C82.5567 406.93 81.9 406.767 81.3279 406.432C80.7558 406.097 80.2926 405.604 79.9942 405.011C79.6958 404.419 79.5748 403.753 79.6459 403.093C79.717 402.434 79.9771 401.809 80.3948 401.294C80.655 400.973 80.9153 400.653 81.1758 400.333C81.571 399.839 81.976 399.354 82.3711 398.86C82.4167 398.813 82.4596 398.763 82.4995 398.711C82.954 398.148 83.4083 397.594 83.8628 397.031C83.0333 395.743 81.9177 394.663 80.6029 393.877C76.049 391.208 69.7663 393.057 66.4768 397.179C63.1774 401.302 62.5551 407.085 63.701 412.235C64.8278 416.618 66.6918 420.776 69.2131 424.533C68.9661 424.849 68.7093 425.156 68.4623 425.472C63.9479 431.281 60.0132 437.52 56.7148 444.097C57.5169 436.728 56.5595 429.274 53.9214 422.348C51.2477 415.893 46.2361 410.457 41.8229 404.877C36.5219 398.174 25.6517 401.099 24.7178 409.596C24.7087 409.678 24.6999 409.761 24.6913 409.843C25.3468 410.213 25.9885 410.606 26.6163 411.021C27.405 411.549 28.0161 412.302 28.3696 413.183C28.7231 414.064 28.8025 415.031 28.5973 415.958C28.3921 416.885 27.912 417.728 27.2198 418.377C26.5276 419.026 25.6557 419.45 24.7182 419.595L24.6222 419.61C24.8557 421.974 25.2685 424.317 25.857 426.619C27.5622 433.044 30.5754 439.048 34.7078 444.254C38.8401 449.459 44.0025 453.754 49.8713 456.869C50.2566 457.067 50.632 457.265 51.0173 457.452C47.7033 466.851 45.6245 476.641 44.8334 486.576C44.3854 492.437 44.4119 498.325 44.9124 504.182L44.8828 503.975C43.6182 497.462 40.1465 491.585 35.0537 487.337C27.4898 481.119 16.8033 478.829 8.64317 473.831C7.77594 473.274 6.76758 472.976 5.73699 472.974C4.70641 472.971 3.69658 473.264 2.82665 473.817C1.95671 474.37 1.26295 475.16 0.827166 476.095C0.39138 477.029 0.231763 478.069 0.367134 479.092C0.378078 479.164 0.389191 479.237 0.400493 479.31C1.61693 479.806 2.80132 480.377 3.94679 481.02C4.6023 481.39 5.24396 481.783 5.87178 482.198C6.66049 482.726 7.27165 483.479 7.62514 484.36C7.97863 485.241 8.05797 486.208 7.8528 487.135C7.64762 488.062 7.16749 488.905 6.47531 489.554C5.78312 490.203 4.91117 490.628 3.9737 490.772L3.87763 490.787C3.80847 490.797 3.74922 490.807 3.68017 490.817C5.75861 495.783 8.67578 500.354 12.3039 504.33C16.7859 509.143 22.2029 512.989 28.2229 515.633C34.2429 518.276 40.739 519.661 47.3128 519.703H47.3227C49.1072 527.463 51.6928 535.017 55.0378 542.242H82.5984C82.6972 541.936 82.7861 541.619 82.875 541.313C80.3239 541.473 77.7628 541.321 75.2488 540.858C77.2937 538.347 79.3384 535.816 81.3833 533.305C81.4289 533.259 81.4718 533.209 81.5117 533.157C82.5489 531.872 83.5961 530.597 84.6333 529.312L84.6338 529.31C84.6891 525.371 84.2374 521.441 83.2898 517.617L83.289 517.616Z" fill="#F2F2F2"/>
<path d="M489.613 517.616C488.902 517.649 488.199 517.462 487.597 517.081C486.996 516.7 486.526 516.144 486.252 515.487C485.977 514.83 485.911 514.104 486.062 513.408C486.214 512.712 486.575 512.08 487.098 511.596C487.185 511.248 487.248 510.998 487.336 510.65C487.304 510.574 487.273 510.498 487.241 510.423C486.525 508.73 485.325 507.287 483.792 506.274C482.258 505.262 480.46 504.725 478.623 504.732C476.786 504.739 474.992 505.289 473.467 506.312C471.941 507.336 470.752 508.789 470.048 510.487C467.236 517.264 463.656 524.054 462.775 531.22C462.386 534.387 462.55 537.598 463.259 540.71C456.654 526.292 453.224 510.622 453.202 494.761C453.201 490.781 453.422 486.804 453.864 482.849C454.23 479.606 454.737 476.387 455.386 473.19C458.925 455.847 466.526 439.592 477.562 425.759C482.904 422.842 487.224 418.357 489.94 412.907C490.924 410.949 491.619 408.857 492.005 406.699C491.402 406.778 490.79 406.828 490.187 406.867C489.999 406.877 489.802 406.887 489.614 406.897L489.543 406.9C488.881 406.93 488.224 406.767 487.652 406.432C487.08 406.097 486.617 405.604 486.318 405.011C486.02 404.419 485.899 403.753 485.97 403.093C486.041 402.434 486.301 401.809 486.719 401.294C486.979 400.973 487.24 400.653 487.5 400.333C487.895 399.839 488.3 399.354 488.695 398.86C488.741 398.813 488.784 398.763 488.824 398.711C489.278 398.148 489.732 397.594 490.187 397.031C489.357 395.743 488.242 394.663 486.927 393.877C482.373 391.208 476.09 393.057 472.801 397.179C469.502 401.302 468.879 407.085 470.025 412.235C471.152 416.618 473.016 420.776 475.537 424.533C475.29 424.849 475.033 425.156 474.787 425.472C470.272 431.281 466.337 437.52 463.039 444.097C463.841 436.728 462.884 429.274 460.246 422.348C457.572 415.893 452.56 410.457 448.147 404.877C442.846 398.174 431.976 401.099 431.042 409.596C431.033 409.678 431.024 409.761 431.015 409.843C431.671 410.213 432.313 410.606 432.94 411.021C433.729 411.549 434.34 412.302 434.694 413.183C435.047 414.064 435.127 415.031 434.921 415.958C434.716 416.885 434.236 417.728 433.544 418.377C432.852 419.026 431.98 419.45 431.042 419.595L430.946 419.61C431.18 421.974 431.593 424.317 432.181 426.619C433.886 433.044 436.9 439.048 441.032 444.254C445.164 449.459 450.327 453.754 456.196 456.869C456.581 457.067 456.956 457.265 457.341 457.452C454.028 466.851 451.949 476.641 451.158 486.576C450.71 492.437 450.736 498.325 451.237 504.182L451.207 503.975C449.942 497.462 446.471 491.585 441.378 487.337C433.814 481.119 423.128 478.829 414.967 473.831C414.1 473.274 413.092 472.976 412.061 472.974C411.031 472.971 410.021 473.264 409.151 473.817C408.281 474.37 407.587 475.16 407.151 476.095C406.716 477.029 406.556 478.069 406.691 479.092C406.702 479.164 406.713 479.237 406.725 479.31C407.941 479.806 409.126 480.377 410.271 481.02C410.927 481.39 411.568 481.783 412.196 482.198C412.985 482.726 413.596 483.479 413.949 484.36C414.303 485.241 414.382 486.208 414.177 487.135C413.972 488.062 413.492 488.905 412.8 489.554C412.107 490.203 411.235 490.628 410.298 490.772L410.202 490.787C410.133 490.797 410.073 490.807 410.004 490.817C412.083 495.783 415 500.354 418.628 504.33C423.11 509.143 428.527 512.989 434.547 515.633C440.567 518.276 447.063 519.661 453.637 519.703H453.647C455.431 527.463 458.017 535.017 461.362 542.242H488.923C489.021 541.936 489.11 541.619 489.199 541.313C486.648 541.473 484.087 541.321 481.573 540.858C483.618 538.347 485.663 535.816 487.708 533.305C487.753 533.259 487.796 533.209 487.836 533.157C488.873 531.872 489.92 530.597 490.957 529.312L490.958 529.31C491.013 525.371 490.562 521.441 489.614 517.617L489.613 517.616Z" fill="#F2F2F2"/>
<path d="M383.481 542.062C383.402 542.062 383.323 542.06 383.243 542.058C381.226 541.943 379.332 541.053 377.954 539.575C376.576 538.097 375.82 536.144 375.845 534.123C375.845 521.823 367.065 514.648 358.365 512.994C349.664 511.341 338.867 514.793 334.361 526.237L330.264 536.53C326.721 540.066 321.922 542.052 316.918 542.052C311.914 542.052 307.115 540.066 303.573 536.53L303.33 536.287L303.481 535.979L375.845 387.811V384.18C375.745 383.061 375.745 381.935 375.847 380.815L375.845 7.63902C375.845 6.61611 376.05 5.60362 376.448 4.66159C376.847 3.71957 377.43 2.86721 378.164 2.15509C378.898 1.44296 379.767 0.885587 380.72 0.516009C381.673 0.146432 382.691 -0.0278236 383.712 0.00360673C385.729 0.118967 387.624 1.00824 389.002 2.48634C390.38 3.96443 391.136 5.91747 391.111 7.93896V380.859C391.212 381.978 391.211 383.104 391.109 384.223L391.111 387.81L463.626 536.287L463.384 536.53C459.841 540.066 455.042 542.052 450.038 542.052C445.034 542.052 440.235 540.066 436.692 536.53L436.585 536.366L432.595 526.237C428.089 514.794 417.293 511.344 408.591 512.994C399.891 514.648 391.111 521.823 391.111 534.123V534.423C391.111 536.448 390.307 538.391 388.877 539.823C387.446 541.256 385.505 542.061 383.481 542.062Z" fill="#E6E6E6"/>
<path d="M515.943 270.109H251.012C247.933 270.106 244.98 268.88 242.803 266.701C240.625 264.522 239.4 261.567 239.396 258.485V73.1211C239.4 70.0392 240.625 67.0844 242.802 64.9051C244.98 62.7258 247.933 61.5 251.012 61.4966H515.943C519.022 61.5001 521.975 62.726 524.152 64.9053C526.33 67.0845 527.555 70.0392 527.558 73.1211V258.485C527.555 261.567 526.33 264.521 524.152 266.701C521.975 268.88 519.022 270.106 515.943 270.109Z" fill="white"/>
<path d="M515.944 271.551H251.014C247.552 271.547 244.234 270.17 241.786 267.72C239.338 265.271 237.961 261.95 237.957 258.486V73.1211C237.961 69.6569 239.338 66.3357 241.786 63.8862C244.234 61.4366 247.552 60.0588 251.014 60.0549H515.944C519.406 60.0589 522.725 61.4368 525.172 63.8863C527.62 66.3358 528.997 69.6569 529.001 73.1211V258.486C528.997 261.95 527.62 265.271 525.172 267.72C522.724 270.169 519.406 271.547 515.944 271.551ZM251.014 62.9388C248.316 62.9418 245.73 64.0155 243.822 65.9244C241.915 67.8333 240.842 70.4214 240.839 73.1211V258.486C240.842 261.185 241.915 263.773 243.823 265.682C245.73 267.591 248.316 268.664 251.014 268.667H515.944C518.642 268.664 521.228 267.591 523.135 265.682C525.043 263.773 526.116 261.185 526.119 258.486V73.1211C526.116 70.4215 525.043 67.8333 523.136 65.9244C521.228 64.0155 518.642 62.9418 515.944 62.9388H251.014Z" fill="#F2F2F2"/>
<path d="M422.65 73.0863H344.308C339.341 73.0807 334.58 71.1037 331.067 67.589C327.555 64.0743 325.58 59.3089 325.574 54.3384V53.9976H441.384V54.3384C441.378 59.3089 439.403 64.0743 435.891 67.589C432.379 71.1037 427.617 73.0807 422.65 73.0863Z" fill="#E6E6E6"/>
<path d="M422.99 281.699H344.648C339.681 281.693 334.919 279.716 331.407 276.202C327.895 272.687 325.92 267.922 325.914 262.951V262.61H441.724V262.951C441.718 267.922 439.743 272.687 436.231 276.202C432.719 279.716 427.957 281.693 422.99 281.699Z" fill="#E6E6E6"/>
<path d="M528.001 543.017C528.001 543.167 527.972 543.316 527.915 543.455C527.857 543.594 527.773 543.72 527.667 543.826C527.561 543.933 527.434 544.017 527.296 544.074C527.157 544.132 527.008 544.161 526.858 544.16H1.14309C0.839924 544.16 0.549201 544.04 0.33483 543.825C0.12046 543.611 0 543.32 0 543.017C0 542.713 0.12046 542.422 0.33483 542.208C0.549201 541.993 0.839924 541.873 1.14309 541.873H526.858C527.008 541.872 527.157 541.901 527.296 541.959C527.434 542.016 527.561 542.1 527.667 542.207C527.773 542.313 527.857 542.439 527.915 542.578C527.972 542.717 528.001 542.866 528.001 543.017Z" fill="#CCCCCC"/>
<path d="M177.04 516.388H190.888L197.475 462.934L177.037 462.935L177.04 516.388Z" fill="#9E616A"/>
<path d="M172.35 509.551L194.241 508.244V517.63L215.053 532.014C216.081 532.724 216.855 533.745 217.262 534.927C217.67 536.109 217.689 537.39 217.317 538.583C216.945 539.777 216.202 540.82 215.196 541.561C214.19 542.302 212.973 542.701 211.724 542.701H185.662L181.17 533.417L179.416 542.701H169.59L172.35 509.551Z" fill="#2F2E41"/>
<path d="M129.944 219.071L128.587 225.54L127.434 249.404L173.776 243.125L177.335 215.492L172.416 207.404L129.944 219.071Z" fill="#9E616A"/>
<path d="M106.956 516.388H120.804L127.391 462.934L106.953 462.935L106.956 516.388Z" fill="#9E616A"/>
<path d="M99.4447 421.951L99.4442 421.808L104.628 397.591L107.824 385.535L98.9394 314.948C96.8475 263.664 126.577 239.012 126.811 238.77L127.456 238.099L175.135 236.932C200.789 252.313 197.885 336.444 202.582 393.66C202.917 397.74 207.127 403.762 206.092 407.642C197.883 438.43 200.288 471.723 194.034 472.707L174.86 472.441L164.957 427.463L174.098 393.158C170.044 392.411 167.242 372.575 167.242 372.575C165.475 370.476 159.377 352.623 159.377 352.623L151.245 303.203L138.18 388.204L141.326 408.146L138.723 415.002L127.572 471.609L127.453 472.521L106.431 470.42L99.4447 421.951Z" fill="#2F2E41"/>
<path d="M102.268 509.551L124.159 508.244V517.63L144.971 532.014C145.999 532.724 146.773 533.745 147.18 534.927C147.588 536.109 147.607 537.39 147.235 538.583C146.863 539.777 146.12 540.82 145.114 541.561C144.108 542.302 142.891 542.701 141.642 542.701H115.58L111.088 533.417L109.334 542.701H99.5078L102.268 509.551Z" fill="#2F2E41"/>
<path d="M168.177 125.743L179.865 138.739L193.904 165.221L187.008 197.874L190.023 213.197L194.476 230.041C177.32 239.537 156.942 226.422 138.221 220.597L119.801 228.741L120.775 206.322L121.274 149.836C121.293 147.666 121.758 145.524 122.639 143.542C123.52 141.559 124.799 139.779 126.396 138.312C127.993 136.845 129.875 135.722 131.924 135.013C133.973 134.304 136.146 134.024 138.307 134.191L150.645 125.093L168.177 125.743Z" fill="#1E1E1E"/>
<path d="M164.902 118.94C178.513 118.94 189.547 107.897 189.547 94.2757C189.547 80.6541 178.513 69.6116 164.902 69.6116C151.29 69.6116 140.256 80.6541 140.256 94.2757C140.256 107.897 151.29 118.94 164.902 118.94Z" fill="#9E616A"/>
<path d="M193.903 85.3747C193.469 87.7913 183.094 88.9577 183.406 84.6581C181.388 88.7061 178.371 94.5806 182.213 101.31C180.708 102.95 179.76 105.025 179.505 107.237C179.249 109.449 179.699 111.686 180.79 113.627C181.884 115.405 182.8 117.287 183.525 119.245C183.671 119.72 183.776 120.208 183.837 120.701C183.899 121.197 183.827 121.701 183.627 122.159C183.428 122.617 183.109 123.013 182.703 123.305C182.298 123.598 181.822 123.776 181.325 123.82C180.827 123.865 180.327 123.775 179.876 123.56C169.425 118.437 151.199 119.305 139.765 122.431C139.841 120.205 139.81 117.984 139.673 115.768C139.256 118.539 138.139 121.158 136.428 123.376C134.47 123.956 132.551 124.558 130.692 125.152C130.409 125.244 130.106 125.258 129.815 125.191C129.525 125.124 129.258 124.98 129.043 124.773C128.828 124.567 128.673 124.306 128.595 124.018C128.516 123.731 128.517 123.427 128.597 123.14C128.96 121.824 129.027 120.444 128.795 119.1C128.323 116.309 126.921 113.786 125.931 111.141C124.941 108.496 124.377 105.454 125.588 102.9C127.47 98.9358 132.772 97.7237 135.11 94.0112C137.738 89.8412 135.697 84.4058 136.108 79.4887C136.687 72.5363 142.378 66.8874 148.792 64.1582C159.898 59.4318 173.793 63.2594 182.119 71.9958C183.287 71.2066 184.65 70.7568 186.058 70.6962C187.466 70.6357 188.863 70.9668 190.095 71.6527C192.555 72.9715 194.322 73.6577 195.427 76.2267C196.394 78.4832 194.345 82.9505 193.903 85.3747Z" fill="#2F2E41"/>
<path d="M183.317 375.416L125.333 317.388C124.659 316.713 124.281 315.798 124.281 314.844C124.281 313.89 124.659 312.975 125.333 312.299L165.873 271.729C166.547 271.055 167.462 270.677 168.415 270.677C169.368 270.677 170.283 271.055 170.957 271.729L228.942 329.757C229.615 330.432 229.994 331.347 229.994 332.301C229.994 333.255 229.615 334.17 228.942 334.846L188.402 375.416C187.727 376.09 186.813 376.468 185.86 376.468C184.907 376.468 183.992 376.09 183.317 375.416Z" fill="white"/>
<path d="M185.86 377.428C185.261 377.43 184.668 377.314 184.116 377.085C183.563 376.856 183.06 376.52 182.638 376.095L124.653 318.068C123.8 317.212 123.32 316.053 123.32 314.844C123.32 313.635 123.8 312.476 124.653 311.62L165.194 271.05C166.048 270.196 167.207 269.716 168.415 269.716C169.623 269.716 170.782 270.196 171.637 271.05L229.621 329.077C230.475 329.933 230.954 331.092 230.954 332.301C230.954 333.51 230.475 334.669 229.621 335.525L189.081 376.095C188.659 376.52 188.157 376.856 187.604 377.085C187.051 377.314 186.458 377.43 185.86 377.428ZM168.415 271.638C168.069 271.637 167.726 271.704 167.406 271.837C167.087 271.969 166.796 272.164 166.552 272.409L126.012 312.98C125.518 313.474 125.241 314.145 125.241 314.844C125.241 315.543 125.518 316.213 126.012 316.708L183.997 374.736C184.499 375.214 185.166 375.481 185.86 375.481C186.553 375.481 187.22 375.214 187.723 374.736L228.263 334.166C228.756 333.671 229.033 333 229.033 332.301C229.033 331.602 228.756 330.932 228.263 330.437L170.278 272.409C170.034 272.164 169.743 271.969 169.424 271.837C169.104 271.705 168.761 271.637 168.415 271.638Z" fill="#E6E6E6"/>
<path d="M161.47 277.127C160.499 275.884 159.813 274.443 159.459 272.905C159.105 271.368 159.092 269.771 159.421 268.228C159.751 266.686 160.414 265.234 161.364 263.975C162.315 262.716 163.53 261.682 164.923 260.944L165.836 164.033L183.935 172.345L179.954 266.072C181.038 268.497 181.195 271.235 180.396 273.768C179.597 276.301 177.897 278.453 175.619 279.816C173.34 281.178 170.642 281.657 168.034 281.162C165.426 280.666 163.091 279.23 161.47 277.127Z" fill="#9E616A"/>
<path d="M161.957 139.497C161.957 139.497 179.564 130.95 181.999 147.076C184.434 163.201 194.449 205.17 194.449 205.17L164.057 203.019L161.957 139.497Z" fill="#9E616A"/>
<path d="M161.47 277.127C160.499 275.884 159.813 274.443 159.459 272.905C159.105 271.368 159.092 269.771 159.421 268.228C159.751 266.686 160.414 265.234 161.364 263.975C162.315 262.716 163.53 261.682 164.923 260.944L165.836 164.033L183.935 172.345L179.954 266.072C181.038 268.497 181.195 271.235 180.396 273.768C179.597 276.301 177.897 278.453 175.619 279.816C173.34 281.178 170.642 281.657 168.034 281.162C165.426 280.666 163.091 279.23 161.47 277.127Z" fill="#9E616A"/>
<path d="M161.957 139.497C161.957 139.497 179.564 130.95 181.999 147.076C184.434 163.201 194.449 205.17 194.449 205.17L164.057 203.019L161.957 139.497Z" fill="#1E1E1E"/>
</g>
<defs>
<clipPath id="clip0_1685_3372">
<rect width="529" height="546" fill="white"/>
</clipPath>
</defs>
</svg>
